<mxfile host="app.diagrams.net" modified="2023-12-18T11:40:03.313Z" agent="Mozilla/5.0 (Windows NT 10.0; Win64; x64) AppleWebKit/537.36 (KHTML, like Gecko) Chrome/120.0.0.0 Safari/537.36" etag="y23nxK0bwaSTIeoiWfaL" version="22.1.11" type="device">
  <diagram name="Page-1" id="X7Xp2POvizc7Kfmobpjy">
    <mxGraphModel dx="933" dy="485" grid="1" gridSize="10" guides="1" tooltips="1" connect="1" arrows="1" fold="1" page="1" pageScale="1" pageWidth="850" pageHeight="1100" math="0" shadow="0">
      <root>
        <mxCell id="0" />
        <mxCell id="1" parent="0" />
        <mxCell id="K2YGU1rVgxujXlvAFn2j-3" value="Deployment Diagram" style="shape=umlFrame;whiteSpace=wrap;html=1;pointerEvents=0;width=130;height=30;" parent="1" vertex="1">
          <mxGeometry x="40" y="70" width="570" height="400" as="geometry" />
        </mxCell>
        <mxCell id="K2YGU1rVgxujXlvAFn2j-4" value="" style="group" parent="1" connectable="0" vertex="1">
          <mxGeometry x="100" y="140" width="230" height="290" as="geometry" />
        </mxCell>
        <mxCell id="K2YGU1rVgxujXlvAFn2j-5" value="" style="verticalAlign=top;align=center;spacingTop=8;spacingLeft=2;spacingRight=12;shape=cube;size=10;direction=south;fontStyle=4;html=1;whiteSpace=wrap;" parent="K2YGU1rVgxujXlvAFn2j-4" vertex="1">
          <mxGeometry x="-12.78" width="204.44" height="280" as="geometry" />
        </mxCell>
        <mxCell id="K2YGU1rVgxujXlvAFn2j-6" value="&lt;font style=&quot;font-size: 11px;&quot;&gt;«device»&lt;br style=&quot;border-color: var(--border-color); font-size: 12px;&quot;&gt;&lt;b&gt;User Smartphone&lt;/b&gt;&lt;br&gt;&lt;/font&gt;" style="text;html=1;strokeColor=none;fillColor=none;align=center;verticalAlign=middle;whiteSpace=wrap;rounded=0;" parent="K2YGU1rVgxujXlvAFn2j-4" vertex="1">
          <mxGeometry x="20.444444444444446" y="24.46" width="127.77777777777779" height="21.54" as="geometry" />
        </mxCell>
        <mxCell id="K2YGU1rVgxujXlvAFn2j-7" value="" style="group" parent="1" connectable="0" vertex="1">
          <mxGeometry x="112" y="200" width="190" height="210" as="geometry" />
        </mxCell>
        <mxCell id="K2YGU1rVgxujXlvAFn2j-8" value="" style="verticalAlign=top;align=center;spacingTop=8;spacingLeft=2;spacingRight=12;shape=cube;size=10;direction=south;fontStyle=4;html=1;whiteSpace=wrap;" parent="K2YGU1rVgxujXlvAFn2j-7" vertex="1">
          <mxGeometry x="-10.56" width="168.89" height="200" as="geometry" />
        </mxCell>
        <mxCell id="K2YGU1rVgxujXlvAFn2j-9" value="&lt;font style=&quot;font-size: 11px;&quot;&gt;«executiveEnvirontment»&lt;br style=&quot;border-color: var(--border-color); font-size: 10px;&quot;&gt;&lt;b style=&quot;border-color: var(--border-color); font-size: 10px;&quot;&gt;Andorid&lt;/b&gt;&lt;br&gt;&lt;/font&gt;" style="text;html=1;strokeColor=none;fillColor=none;align=center;verticalAlign=middle;whiteSpace=wrap;rounded=0;" parent="K2YGU1rVgxujXlvAFn2j-7" vertex="1">
          <mxGeometry x="19.087692307692304" y="11.67" width="95" height="36.66" as="geometry" />
        </mxCell>
        <mxCell id="mHnonUvzhsOnKi24pGjt-13" value="" style="group" connectable="0" vertex="1" parent="1">
          <mxGeometry x="121" y="260" width="150" height="60" as="geometry" />
        </mxCell>
        <mxCell id="mHnonUvzhsOnKi24pGjt-14" value="" style="verticalAlign=top;align=center;spacingTop=8;spacingLeft=2;spacingRight=12;shape=cube;size=10;direction=south;fontStyle=4;html=1;whiteSpace=wrap;" vertex="1" parent="mHnonUvzhsOnKi24pGjt-13">
          <mxGeometry x="-8.333333333333334" width="133.33333333333334" height="50.76923076923076" as="geometry" />
        </mxCell>
        <mxCell id="mHnonUvzhsOnKi24pGjt-15" value="&lt;font style=&quot;font-size: 10px;&quot;&gt;«artifact»&lt;br style=&quot;border-color: var(--border-color); font-size: 10px;&quot;&gt;&lt;b style=&quot;font-size: 10px;&quot;&gt;Koceku.exe&lt;/b&gt;&lt;br style=&quot;font-size: 10px;&quot;&gt;&lt;/font&gt;" style="text;html=1;strokeColor=none;fillColor=none;align=center;verticalAlign=middle;whiteSpace=wrap;rounded=0;fontSize=10;" vertex="1" parent="mHnonUvzhsOnKi24pGjt-13">
          <mxGeometry x="8.881784197001252e-16" y="11.67" width="104.93" height="36.66" as="geometry" />
        </mxCell>
        <mxCell id="mHnonUvzhsOnKi24pGjt-16" value="" style="group" connectable="0" vertex="1" parent="1">
          <mxGeometry x="120" y="330" width="150" height="60" as="geometry" />
        </mxCell>
        <mxCell id="mHnonUvzhsOnKi24pGjt-17" value="" style="verticalAlign=top;align=center;spacingTop=8;spacingLeft=2;spacingRight=12;shape=cube;size=10;direction=south;fontStyle=4;html=1;whiteSpace=wrap;" vertex="1" parent="mHnonUvzhsOnKi24pGjt-16">
          <mxGeometry x="-8.333333333333334" width="133.33333333333334" height="50.76923076923076" as="geometry" />
        </mxCell>
        <mxCell id="mHnonUvzhsOnKi24pGjt-18" value="&lt;font style=&quot;font-size: 10px;&quot;&gt;«device»&lt;br style=&quot;border-color: var(--border-color); font-size: 10px;&quot;&gt;&lt;b style=&quot;font-size: 10px;&quot;&gt;Internal Storage&lt;/b&gt;&lt;br style=&quot;font-size: 10px;&quot;&gt;&lt;/font&gt;" style="text;html=1;strokeColor=none;fillColor=none;align=center;verticalAlign=middle;whiteSpace=wrap;rounded=0;fontSize=10;" vertex="1" parent="mHnonUvzhsOnKi24pGjt-16">
          <mxGeometry x="8.881784197001252e-16" y="11.67" width="104.93" height="36.66" as="geometry" />
        </mxCell>
        <mxCell id="mHnonUvzhsOnKi24pGjt-19" value="" style="group" connectable="0" vertex="1" parent="1">
          <mxGeometry x="420" y="140" width="230" height="290" as="geometry" />
        </mxCell>
        <mxCell id="mHnonUvzhsOnKi24pGjt-20" value="" style="verticalAlign=top;align=center;spacingTop=8;spacingLeft=2;spacingRight=12;shape=cube;size=10;direction=south;fontStyle=4;html=1;whiteSpace=wrap;" vertex="1" parent="mHnonUvzhsOnKi24pGjt-19">
          <mxGeometry x="-62.78" y="70" width="204.44" height="120" as="geometry" />
        </mxCell>
        <mxCell id="mHnonUvzhsOnKi24pGjt-21" value="&lt;font style=&quot;font-size: 10px;&quot;&gt;«device»&lt;br style=&quot;border-color: var(--border-color); font-size: 10px;&quot;&gt;&lt;b&gt;Server&lt;/b&gt;&lt;br style=&quot;font-size: 10px;&quot;&gt;&lt;/font&gt;" style="text;html=1;strokeColor=none;fillColor=none;align=center;verticalAlign=middle;whiteSpace=wrap;rounded=0;fontSize=10;" vertex="1" parent="mHnonUvzhsOnKi24pGjt-19">
          <mxGeometry x="-50" y="81.67" width="160.89266666666668" height="36.66" as="geometry" />
        </mxCell>
        <mxCell id="mHnonUvzhsOnKi24pGjt-22" style="edgeStyle=orthogonalEdgeStyle;rounded=0;orthogonalLoop=1;jettySize=auto;html=1;exitX=0;exitY=0;exitDx=50.76923076923076;exitDy=71.66666666666667;exitPerimeter=0;entryX=0;entryY=0;entryDx=0;entryDy=61.66666666666667;entryPerimeter=0;endArrow=none;endFill=0;" edge="1" parent="1" source="mHnonUvzhsOnKi24pGjt-14" target="mHnonUvzhsOnKi24pGjt-17">
          <mxGeometry relative="1" as="geometry" />
        </mxCell>
        <mxCell id="mHnonUvzhsOnKi24pGjt-25" value="&lt;font style=&quot;font-size: 7px;&quot;&gt;access&lt;br&gt;&lt;/font&gt;" style="edgeLabel;html=1;align=center;verticalAlign=middle;resizable=0;points=[];" vertex="1" connectable="0" parent="mHnonUvzhsOnKi24pGjt-22">
          <mxGeometry x="0.1557" relative="1" as="geometry">
            <mxPoint as="offset" />
          </mxGeometry>
        </mxCell>
        <mxCell id="mHnonUvzhsOnKi24pGjt-30" value="" style="group" connectable="0" vertex="1" parent="1">
          <mxGeometry x="380" y="260" width="190" height="60" as="geometry" />
        </mxCell>
        <mxCell id="mHnonUvzhsOnKi24pGjt-31" value="" style="verticalAlign=top;align=center;spacingTop=8;spacingLeft=2;spacingRight=12;shape=cube;size=10;direction=south;fontStyle=4;html=1;whiteSpace=wrap;" vertex="1" parent="mHnonUvzhsOnKi24pGjt-30">
          <mxGeometry x="-10.555555555555555" width="168.88888888888889" height="50.76923076923076" as="geometry" />
        </mxCell>
        <mxCell id="mHnonUvzhsOnKi24pGjt-32" value="&lt;font style=&quot;font-size: 10px;&quot;&gt;«artifact»&lt;br style=&quot;border-color: var(--border-color); font-size: 10px;&quot;&gt;&lt;b style=&quot;font-size: 10px;&quot;&gt;kocekuDatabase.db&lt;/b&gt;&lt;br style=&quot;font-size: 10px;&quot;&gt;&lt;/font&gt;" style="text;html=1;strokeColor=none;fillColor=none;align=center;verticalAlign=middle;whiteSpace=wrap;rounded=0;fontSize=10;" vertex="1" parent="mHnonUvzhsOnKi24pGjt-30">
          <mxGeometry x="1.1250259982868252e-15" y="11.67" width="132.91133333333335" height="36.66" as="geometry" />
        </mxCell>
        <mxCell id="mHnonUvzhsOnKi24pGjt-33" style="edgeStyle=orthogonalEdgeStyle;rounded=0;orthogonalLoop=1;jettySize=auto;html=1;exitX=0;exitY=0;exitDx=135;exitDy=0;exitPerimeter=0;entryX=0;entryY=0;entryDx=65;entryDy=204.44;entryPerimeter=0;endArrow=none;endFill=0;" edge="1" parent="1" source="K2YGU1rVgxujXlvAFn2j-5" target="mHnonUvzhsOnKi24pGjt-20">
          <mxGeometry relative="1" as="geometry" />
        </mxCell>
        <mxCell id="mHnonUvzhsOnKi24pGjt-34" value="&lt;font style=&quot;font-size: 7px;&quot;&gt;HTTP Request&lt;/font&gt;" style="edgeLabel;html=1;align=center;verticalAlign=middle;resizable=0;points=[];" vertex="1" connectable="0" parent="mHnonUvzhsOnKi24pGjt-33">
          <mxGeometry x="0.2529" y="9" relative="1" as="geometry">
            <mxPoint x="-8" y="-1" as="offset" />
          </mxGeometry>
        </mxCell>
      </root>
    </mxGraphModel>
  </diagram>
</mxfile>
